<svg width="160" height="40" viewBox="0 0 160 40" fill="none" xmlns="http://www.w3.org/2000/svg">
<rect width="160" height="40" rx="5" fill="#FF9900"/>
<path d="M78.774 16.192V17.884H95.208V16.192H78.774ZM83.004 26.668V28.36H90.906V26.668H83.004ZM83.004 21.43V23.086H90.906V21.43H83.004ZM82.05 12.916V29.512H83.868V12.916H82.05ZM90.15 12.916V29.404H92.004V12.916H90.15ZM100.302 15.31L98.106 15.274C98.214 15.76 98.232 16.534 98.232 16.984C98.232 18.046 98.268 20.206 98.43 21.808C98.934 26.542 100.59 28.27 102.426 28.27C103.74 28.27 104.838 27.208 105.972 24.112L104.55 22.438C104.136 24.076 103.344 26.056 102.462 26.056C101.238 26.056 100.518 24.148 100.23 21.322C100.122 19.918 100.104 18.406 100.122 17.254C100.122 16.768 100.194 15.832 100.302 15.31ZM109.5 15.778L107.718 16.372C109.554 18.532 110.58 22.528 110.886 25.624L112.722 24.886C112.488 21.97 111.156 17.848 109.5 15.778Z" fill="white"/>
<path d="M58 32C61.1826 32 64.2348 30.7357 66.4853 28.4853C68.7357 26.2348 70 23.1826 70 20C70 16.8174 68.7357 13.7652 66.4853 11.5147C64.2348 9.26428 61.1826 8 58 8C54.8174 8 51.7652 9.26428 49.5147 11.5147C47.2643 13.7652 46 16.8174 46 20C46 23.1826 47.2643 26.2348 49.5147 28.4853C51.7652 30.7357 54.8174 32 58 32ZM56.5 17.75C56.5 18.992 55.828 20 55 20C54.172 20 53.5 18.992 53.5 17.75C53.5 16.508 54.172 15.5 55 15.5C55.828 15.5 56.5 16.508 56.5 17.75ZM52.4275 22.3505C52.5998 22.251 52.8045 22.2241 52.9966 22.2756C53.1887 22.3271 53.3525 22.4527 53.452 22.625C53.9127 23.4235 54.5756 24.0865 55.374 24.5474C56.1724 25.0082 57.0781 25.2505 58 25.25C58.9219 25.2505 59.8276 25.0082 60.626 24.5474C61.4244 24.0865 62.0873 23.4235 62.548 22.625C62.5969 22.539 62.6623 22.4635 62.7405 22.4029C62.8186 22.3423 62.908 22.2978 63.0035 22.2719C63.0989 22.246 63.1986 22.2392 63.2967 22.2519C63.3947 22.2647 63.4893 22.2967 63.575 22.3462C63.6607 22.3956 63.7357 22.4615 63.7958 22.5401C63.8558 22.6187 63.8998 22.7084 63.9251 22.804C63.9504 22.8996 63.9565 22.9993 63.9431 23.0973C63.9297 23.1953 63.897 23.2897 63.847 23.375C63.2547 24.4015 62.4024 25.2539 61.376 25.8464C60.3496 26.4389 59.1852 26.7505 58 26.75C56.8148 26.7505 55.6504 26.4389 54.624 25.8464C53.5976 25.2539 52.7453 24.4015 52.153 23.375C52.0535 23.2027 52.0266 22.998 52.0781 22.8059C52.1296 22.6138 52.2552 22.45 52.4275 22.3505ZM61 20C60.172 20 59.5 18.992 59.5 17.75C59.5 16.508 60.172 15.5 61 15.5C61.828 15.5 62.5 16.508 62.5 17.75C62.5 18.992 61.828 20 61 20Z" fill="white"/>
</svg>
