<svg width="24" height="24" viewBox="0 0 24 24" fill="none" xmlns="http://www.w3.org/2000/svg">
<circle r="12" transform="matrix(-1 0 0 1 12 12)" fill="#FF9900"/>
<path d="M17.4453 6.66795C17.9048 6.3616 18.5257 6.48577 18.8321 6.9453C19.1384 7.40483 19.0142 8.0257 18.5547 8.33205L17.4453 6.66795ZM15 9.5L14.3598 10.2682C14.1174 10.0662 13.9846 9.76172 14.0014 9.44666C14.0183 9.1316 14.1828 8.84296 14.4453 8.66795L15 9.5ZM18.6402 11.2318C19.0645 11.5853 19.1218 12.2159 18.7682 12.6402C18.4147 13.0645 17.7841 13.1218 17.3598 12.7682L18.6402 11.2318ZM15.6402 8.73178L18.6402 11.2318L17.3598 12.7682L14.3598 10.2682L15.6402 8.73178ZM18.5547 8.33205L17.0547 9.33205L15.9453 7.66795L17.4453 6.66795L18.5547 8.33205ZM17.0547 9.33205L15.5547 10.3321L14.4453 8.66795L15.9453 7.66795L17.0547 9.33205Z" fill="white"/>
<path d="M6.5547 6.66795C6.09517 6.3616 5.4743 6.48577 5.16795 6.9453C4.8616 7.40483 4.98577 8.0257 5.4453 8.33205L6.5547 6.66795ZM9 9.5L9.64018 10.2682C9.88256 10.0662 10.0154 9.76172 9.99858 9.44666C9.98175 9.1316 9.81722 8.84296 9.5547 8.66795L9 9.5ZM5.35982 11.2318C4.93554 11.5853 4.87821 12.2159 5.23178 12.6402C5.58534 13.0645 6.21591 13.1218 6.64018 12.7682L5.35982 11.2318ZM8.35982 8.73178L5.35982 11.2318L6.64018 12.7682L9.64018 10.2682L8.35982 8.73178ZM5.4453 8.33205L6.9453 9.33205L8.0547 7.66795L6.5547 6.66795L5.4453 8.33205ZM6.9453 9.33205L8.4453 10.3321L9.5547 8.66795L8.0547 7.66795L6.9453 9.33205Z" fill="white"/>
<path d="M16.5 16.5C14.75 18.75 11.25 21 7.5 16.5" stroke="white" stroke-width="2" stroke-linecap="round"/>
</svg>
