<svg width="160" height="40" viewBox="0 0 160 40" fill="none" xmlns="http://www.w3.org/2000/svg">
<rect width="160" height="40" rx="5" fill="#FF9900"/>
<path d="M74.796 17.38L73.806 15.742C73.392 16.084 72.942 16.354 72.348 16.696C71.214 17.344 68.802 18.496 67.02 19.684C64.896 21.088 63.42 22.654 63.42 24.76C63.42 27.622 65.994 28.63 69.468 28.63C71.754 28.63 73.752 28.432 75.192 28.18L75.21 26.146C73.716 26.524 71.304 26.776 69.396 26.776C66.696 26.776 65.346 25.948 65.346 24.544C65.346 23.23 66.354 22.114 67.956 21.07C69.666 19.954 72.06 18.82 73.23 18.226C73.824 17.92 74.328 17.65 74.796 17.38ZM65.706 13.852L63.924 14.59C64.896 16.876 65.976 19.27 66.93 20.818L68.514 19.882C67.668 18.406 66.552 16.192 65.706 13.852ZM82.05 14.68L82.086 16.552C82.464 16.498 83.04 16.444 83.454 16.408C84.336 16.354 87.324 16.228 88.386 16.174C86.892 17.704 82.284 21.52 79.746 23.482L81.114 24.886C83.22 22.816 85.002 21.142 87.972 21.142C90.168 21.142 91.572 22.276 91.572 23.878C91.572 26.416 88.44 27.622 83.454 26.992L83.958 28.846C90.222 29.35 93.498 27.388 93.498 23.896C93.498 21.412 91.392 19.648 88.332 19.648C87.738 19.648 86.946 19.738 86.136 20.026C87.666 18.82 89.628 17.218 90.834 16.246C91.05 16.102 91.446 15.832 91.716 15.688L90.708 14.41C90.402 14.482 89.934 14.554 89.574 14.59C88.422 14.662 84.354 14.734 83.4 14.734C82.86 14.734 82.356 14.716 82.05 14.68ZM110.796 17.38L109.806 15.742C109.392 16.084 108.942 16.354 108.348 16.696C107.214 17.344 104.802 18.496 103.02 19.684C100.896 21.088 99.42 22.654 99.42 24.76C99.42 27.622 101.994 28.63 105.468 28.63C107.754 28.63 109.752 28.432 111.192 28.18L111.21 26.146C109.716 26.524 107.304 26.776 105.396 26.776C102.696 26.776 101.346 25.948 101.346 24.544C101.346 23.23 102.354 22.114 103.956 21.07C105.666 19.954 108.06 18.82 109.23 18.226C109.824 17.92 110.328 17.65 110.796 17.38ZM101.706 13.852L99.924 14.59C100.896 16.876 101.976 19.27 102.93 20.818L104.514 19.882C103.668 18.406 102.552 16.192 101.706 13.852ZM118.05 14.68L118.086 16.552C118.464 16.498 119.04 16.444 119.454 16.408C120.336 16.354 123.324 16.228 124.386 16.174C122.892 17.704 118.284 21.52 115.746 23.482L117.114 24.886C119.22 22.816 121.002 21.142 123.972 21.142C126.168 21.142 127.572 22.276 127.572 23.878C127.572 26.416 124.44 27.622 119.454 26.992L119.958 28.846C126.222 29.35 129.498 27.388 129.498 23.896C129.498 21.412 127.392 19.648 124.332 19.648C123.738 19.648 122.946 19.738 122.136 20.026C123.666 18.82 125.628 17.218 126.834 16.246C127.05 16.102 127.446 15.832 127.716 15.688L126.708 14.41C126.402 14.482 125.934 14.554 125.574 14.59C124.422 14.662 120.354 14.734 119.4 14.734C118.86 14.734 118.356 14.716 118.05 14.68Z" fill="white"/>
<path d="M37 8.99998C32.342 8.99994 34.5 12 31.8711 13.3066C26.4716 14.7174 27.2144 24.2239 31.0713 24.9293C34.6055 25.5757 31.4675 27.5583 35.6993 30.5724C39.0593 32.9655 42.8307 32.0888 44.1843 29.867C45.6984 27.382 52.6694 29.1616 51.1267 23.5185C50.333 20.6152 53.4408 19.9916 51.1267 16.4646C47.2699 12.2323 46.5649 14.7876 45.3307 10.8374C43.788 5.89966 39 9 37 8.99998Z" fill="white"/>
</svg>
