<svg width="24" height="24" viewBox="0 0 24 24" fill="none" xmlns="http://www.w3.org/2000/svg">
<path d="M12 24C8.8174 24 5.76515 22.7357 3.51472 20.4853C1.26428 18.2348 0 15.1826 0 12C0 8.8174 1.26428 5.76516 3.51472 3.51472C5.76515 1.26428 8.8174 0 12 0C15.1826 0 18.2348 1.26428 20.4853 3.51472C22.7357 5.76516 24 8.8174 24 12C24 15.1826 22.7357 18.2348 20.4853 20.4853C18.2348 22.7357 15.1826 24 12 24ZM13.5 9.75C13.5 10.992 14.172 12 15 12C15.828 12 16.5 10.992 16.5 9.75C16.5 8.508 15.828 7.5 15 7.5C14.172 7.5 13.5 8.508 13.5 9.75ZM17.5725 14.3505C17.4002 14.251 17.1955 14.2241 17.0034 14.2756C16.8113 14.3271 16.6475 14.4527 16.548 14.625C16.0873 15.4235 15.4244 16.0865 14.626 16.5474C13.8276 17.0082 12.9219 17.2505 12 17.25C11.0781 17.2505 10.1724 17.0082 9.37399 16.5474C8.57558 16.0865 7.91267 15.4235 7.452 14.625C7.40311 14.539 7.3377 14.4635 7.25953 14.4029C7.18136 14.3423 7.09197 14.2978 6.99652 14.2719C6.90106 14.246 6.80143 14.2392 6.70334 14.2519C6.60526 14.2647 6.51066 14.2967 6.425 14.3462C6.33935 14.3956 6.26432 14.4615 6.20424 14.5401C6.14415 14.6187 6.10021 14.7084 6.07493 14.804C6.04964 14.8996 6.04353 14.9993 6.05693 15.0973C6.07033 15.1953 6.10298 15.2897 6.153 15.375C6.74532 16.4015 7.59758 17.2539 8.62401 17.8464C9.65045 18.4389 10.8148 18.7505 12 18.75C13.1852 18.7505 14.3496 18.4389 15.376 17.8464C16.4024 17.2539 17.2547 16.4015 17.847 15.375C17.9465 15.2027 17.9734 14.998 17.9219 14.8059C17.8704 14.6138 17.7448 14.45 17.5725 14.3505ZM9 12C9.828 12 10.5 10.992 10.5 9.75C10.5 8.508 9.828 7.5 9 7.5C8.172 7.5 7.5 8.508 7.5 9.75C7.5 10.992 8.172 12 9 12Z" fill="#FF9900"/>
</svg>
