<svg width="160" height="40" viewBox="0 0 160 40" fill="none" xmlns="http://www.w3.org/2000/svg">
<rect width="160" height="40" rx="5" fill="#FF9900"/>
<path d="M46.354 13.87L44.068 13.852C44.194 14.464 44.248 15.202 44.248 15.94C44.248 17.686 44.068 22.312 44.068 24.868C44.068 27.874 45.904 29.044 48.658 29.044C52.672 29.044 55.102 26.722 56.308 24.994L55.012 23.446C53.716 25.354 51.844 27.136 48.694 27.136C47.11 27.136 45.94 26.488 45.94 24.58C45.94 22.096 46.084 17.938 46.156 15.94C46.192 15.292 46.264 14.536 46.354 13.87ZM67.198 19.018L68.458 18.082C67.99 17.56 67 16.714 66.496 16.372L65.254 17.308C65.902 17.776 66.676 18.46 67.198 19.018ZM63.148 17.74L61.366 18.442C61.654 18.766 61.96 19.252 62.14 19.558C62.662 20.404 63.454 22.114 64.084 23.572C64.804 25.336 65.614 27.748 66.046 29.494L67.846 29.044C67.342 27.46 66.37 24.58 65.632 22.87C65.074 21.574 64.138 19.648 63.634 18.694C63.508 18.442 63.31 18.046 63.148 17.74ZM59.89 22.024L60.718 23.77C62.212 23.104 67.252 20.296 69.592 20.296C70.996 20.296 71.536 21.07 71.536 21.754C71.536 22.708 70.942 23.482 69.412 23.482C68.746 23.482 67.936 23.266 67.342 22.978L67.288 24.634C67.81 24.832 68.728 25.084 69.52 25.084C72.112 25.084 73.264 23.77 73.264 21.754C73.264 20.206 72.148 18.712 69.664 18.712C67.414 18.712 63.598 20.692 61.294 21.592C61.042 21.7 60.484 21.88 59.89 22.024ZM79.096 15.418L79.204 17.056C81.85 17.308 84.352 17.308 86.188 17.146C87.682 17.02 89.23 16.714 90.454 16.372L90.22 14.734C88.834 15.184 87.358 15.472 85.81 15.598C83.938 15.76 81.652 15.724 79.096 15.418ZM78.754 19.144L78.862 20.836C82.03 21.052 85.432 20.998 87.682 20.728C89.158 20.566 90.508 20.296 91.534 20.026L91.246 18.352C90.256 18.64 88.852 19 87.034 19.18C84.91 19.414 81.904 19.468 78.754 19.144ZM84.856 15.508C85.09 16.39 85.324 17.218 85.774 18.46C86.26 19.864 86.98 21.52 87.97 23.104C87.412 23.032 86.332 22.924 85.45 22.834L85.306 24.202C86.584 24.346 88.384 24.544 89.392 24.778L90.292 23.428C90.004 23.158 89.77 22.906 89.554 22.6C88.654 21.268 87.826 19.468 87.358 18.136C86.908 16.804 86.404 15.094 86.206 13.492L84.298 13.726C84.514 14.32 84.694 14.914 84.856 15.508ZM81.742 23.158L79.978 22.798C79.564 23.626 79.222 24.436 79.24 25.516C79.276 27.946 81.364 28.99 84.91 28.99C86.422 28.99 87.934 28.882 89.194 28.666L89.284 26.866C87.988 27.118 86.584 27.244 84.892 27.244C82.264 27.244 80.968 26.596 80.968 25.174C80.968 24.382 81.31 23.77 81.742 23.158ZM100.354 13.87L98.068 13.852C98.194 14.464 98.248 15.202 98.248 15.94C98.248 17.686 98.068 22.312 98.068 24.868C98.068 27.874 99.904 29.044 102.658 29.044C106.672 29.044 109.102 26.722 110.308 24.994L109.012 23.446C107.716 25.354 105.844 27.136 102.694 27.136C101.11 27.136 99.94 26.488 99.94 24.58C99.94 22.096 100.084 17.938 100.156 15.94C100.192 15.292 100.264 14.536 100.354 13.87ZM121.198 19.018L122.458 18.082C121.99 17.56 121 16.714 120.496 16.372L119.254 17.308C119.902 17.776 120.676 18.46 121.198 19.018ZM117.148 17.74L115.366 18.442C115.654 18.766 115.96 19.252 116.14 19.558C116.662 20.404 117.454 22.114 118.084 23.572C118.804 25.336 119.614 27.748 120.046 29.494L121.846 29.044C121.342 27.46 120.37 24.58 119.632 22.87C119.074 21.574 118.138 19.648 117.634 18.694C117.508 18.442 117.31 18.046 117.148 17.74ZM113.89 22.024L114.718 23.77C116.212 23.104 121.252 20.296 123.592 20.296C124.996 20.296 125.536 21.07 125.536 21.754C125.536 22.708 124.942 23.482 123.412 23.482C122.746 23.482 121.936 23.266 121.342 22.978L121.288 24.634C121.81 24.832 122.728 25.084 123.52 25.084C126.112 25.084 127.264 23.77 127.264 21.754C127.264 20.206 126.148 18.712 123.664 18.712C121.414 18.712 117.598 20.692 115.294 21.592C115.042 21.7 114.484 21.88 113.89 22.024ZM133.096 15.418L133.204 17.056C135.85 17.308 138.352 17.308 140.188 17.146C141.682 17.02 143.23 16.714 144.454 16.372L144.22 14.734C142.834 15.184 141.358 15.472 139.81 15.598C137.938 15.76 135.652 15.724 133.096 15.418ZM132.754 19.144L132.862 20.836C136.03 21.052 139.432 20.998 141.682 20.728C143.158 20.566 144.508 20.296 145.534 20.026L145.246 18.352C144.256 18.64 142.852 19 141.034 19.18C138.91 19.414 135.904 19.468 132.754 19.144ZM138.856 15.508C139.09 16.39 139.324 17.218 139.774 18.46C140.26 19.864 140.98 21.52 141.97 23.104C141.412 23.032 140.332 22.924 139.45 22.834L139.306 24.202C140.584 24.346 142.384 24.544 143.392 24.778L144.292 23.428C144.004 23.158 143.77 22.906 143.554 22.6C142.654 21.268 141.826 19.468 141.358 18.136C140.908 16.804 140.404 15.094 140.206 13.492L138.298 13.726C138.514 14.32 138.694 14.914 138.856 15.508ZM135.742 23.158L133.978 22.798C133.564 23.626 133.222 24.436 133.24 25.516C133.276 27.946 135.364 28.99 138.91 28.99C140.422 28.99 141.934 28.882 143.194 28.666L143.284 26.866C141.988 27.118 140.584 27.244 138.892 27.244C136.264 27.244 134.968 26.596 134.968 25.174C134.968 24.382 135.31 23.77 135.742 23.158Z" fill="white"/>
<path d="M25.9999 9.75122L34.8755 25.1243H17.1243L25.9999 9.75122Z" fill="white"/>
<path d="M31.1243 11.1243L31.1243 28.8756L15.7512 20L31.1243 11.1243Z" fill="white"/>
<path d="M34.8756 14.8756L25.9999 30.2487L17.1243 14.8756L34.8756 14.8756Z" fill="white"/>
<path d="M36.2487 19.9999L20.8756 28.8755L20.8756 11.1243L36.2487 19.9999Z" fill="white"/>
</svg>
