<svg width="160" height="40" viewBox="0 0 160 40" fill="none" xmlns="http://www.w3.org/2000/svg">
<rect width="160" height="40" rx="5" fill="#FF9900"/>
<path d="M71.034 22.114V23.392H75.39V22.114H71.034ZM68.28 15.958L68.388 17.434C70.476 17.344 73.374 17.182 76.146 17.02L76.164 15.652C73.284 15.778 70.278 15.904 68.28 15.958ZM71.52 20.476C70.8 22.24 69.396 23.77 67.758 24.724C68.1 24.976 68.694 25.534 68.928 25.822C70.638 24.706 72.186 22.924 73.05 20.836L71.52 20.476ZM74.94 22.114V22.366C73.95 25.408 71.16 27.388 68.01 28.18C68.316 28.504 68.676 29.098 68.856 29.494C72.33 28.432 75.282 26.29 76.524 22.456L75.516 22.06L75.246 22.114H74.94ZM71.304 23.212L69.918 23.572C71.16 26.506 73.41 28.612 76.65 29.512C76.866 29.098 77.316 28.468 77.658 28.144C74.616 27.442 72.348 25.624 71.304 23.212ZM70.35 17.092C70.224 18.658 69.792 19.684 67.992 20.278C68.298 20.53 68.712 21.088 68.856 21.448C71.052 20.602 71.646 19.198 71.844 17.092H70.35ZM73.086 17.056V19.162C73.086 20.458 73.374 20.854 74.688 20.854C74.922 20.854 75.732 20.854 76.02 20.854C76.974 20.854 77.352 20.44 77.478 18.784C77.082 18.694 76.488 18.478 76.218 18.262C76.182 19.432 76.092 19.558 75.804 19.558C75.642 19.558 75.03 19.558 74.904 19.558C74.598 19.558 74.544 19.522 74.544 19.162V17.056H73.086ZM71.106 12.754C70.746 13.87 70.044 15.454 69.45 16.426L70.728 16.894C71.358 15.976 72.114 14.518 72.762 13.258L71.106 12.754ZM73.806 14.572C74.76 15.562 75.84 16.948 76.29 17.848L77.586 17.146C77.1 16.228 75.984 14.896 75.03 13.96L73.806 14.572ZM61.062 16.966V29.458H62.34V18.406H66.786V29.206H68.118V16.966H61.062ZM61.638 24.076V25.39H67.614V24.076H61.638ZM61.638 26.902V28.234H67.614V26.902H61.638ZM60.9 13.6V15.04H68.136V13.6H60.9ZM62.934 14.032V18.154H64.104V14.032H62.934ZM65.022 14.032V18.154H66.192V14.032H65.022ZM63.276 18.046V19.738C63.276 20.602 63.132 21.646 62.232 22.492C62.412 22.582 62.772 22.888 62.916 23.068C63.906 22.114 64.14 20.782 64.14 19.738V18.046H63.276ZM64.968 18.046V21.052C64.968 22.006 65.184 22.204 65.922 22.204C66.084 22.204 66.552 22.204 66.696 22.204C67.218 22.204 67.506 22.006 67.596 21.574C67.326 21.502 66.984 21.394 66.804 21.25C66.768 21.286 66.732 21.286 66.534 21.286C66.426 21.286 66.102 21.286 66.03 21.286C65.85 21.286 65.832 21.268 65.832 21.052V18.046H64.968ZM80.736 20.638L81.492 22.492C82.806 21.952 86.604 20.368 88.764 20.368C90.492 20.368 91.608 21.43 91.608 22.87C91.608 25.588 88.368 26.704 84.372 26.812L85.11 28.558C90.348 28.234 93.48 26.272 93.48 22.906C93.48 20.332 91.608 18.73 88.926 18.73C86.784 18.73 83.778 19.792 82.518 20.17C81.96 20.35 81.276 20.53 80.736 20.638ZM102.642 17.398L102.66 19.09C103.704 19.162 104.694 19.198 105.72 19.198C107.88 19.198 110.094 19.054 112.002 18.748V17.002C110.148 17.362 107.916 17.542 105.738 17.542C104.676 17.542 103.668 17.488 102.642 17.398ZM109.176 14.248H107.142C107.196 14.572 107.25 15.094 107.25 15.382C107.25 15.976 107.25 17.146 107.25 18.442C107.25 20.908 107.502 24.13 107.502 25.408C107.502 26.542 107.088 27.226 105.738 27.226C104.604 27.226 103.776 26.812 103.776 25.966C103.776 25.174 104.622 24.67 105.81 24.67C107.988 24.67 109.806 25.876 111.786 27.712L112.74 26.218C111.282 24.886 109.14 23.284 105.954 23.284C103.56 23.284 102.138 24.508 102.138 26.146C102.138 27.892 103.56 28.9 105.99 28.9C108.492 28.9 109.284 27.478 109.284 25.822C109.284 24.022 109.014 21.43 109.014 18.424C109.014 17.254 109.032 15.994 109.068 15.364C109.086 15.004 109.122 14.608 109.176 14.248ZM100.338 14.392L98.358 14.23C98.358 14.698 98.286 15.274 98.232 15.724C98.016 17.164 97.44 20.584 97.44 23.266C97.44 25.696 97.764 27.712 98.124 28.99L99.726 28.864C99.708 28.648 99.69 28.36 99.69 28.18C99.672 27.982 99.708 27.622 99.762 27.37C99.96 26.434 100.59 24.598 101.058 23.248L100.158 22.546C99.87 23.212 99.492 24.094 99.24 24.832C99.132 24.184 99.096 23.554 99.096 22.906C99.096 20.998 99.654 17.254 99.978 15.778C100.032 15.454 100.212 14.734 100.338 14.392ZM110.724 14.644C110.724 14.068 111.156 13.636 111.714 13.636C112.272 13.636 112.704 14.068 112.704 14.644C112.704 15.184 112.272 15.616 111.714 15.616C111.156 15.616 110.724 15.184 110.724 14.644ZM109.806 14.644C109.806 15.688 110.652 16.534 111.714 16.534C112.776 16.534 113.622 15.688 113.622 14.644C113.622 13.564 112.776 12.718 111.714 12.718C110.652 12.718 109.806 13.564 109.806 14.644ZM118.302 15.31L116.106 15.274C116.214 15.76 116.232 16.534 116.232 16.984C116.232 18.046 116.268 20.206 116.43 21.808C116.934 26.542 118.59 28.27 120.426 28.27C121.74 28.27 122.838 27.208 123.972 24.112L122.55 22.438C122.136 24.076 121.344 26.056 120.462 26.056C119.238 26.056 118.518 24.148 118.23 21.322C118.122 19.918 118.104 18.406 118.122 17.254C118.122 16.768 118.194 15.832 118.302 15.31ZM127.5 15.778L125.718 16.372C127.554 18.532 128.58 22.528 128.886 25.624L130.722 24.886C130.488 21.97 129.156 17.848 127.5 15.778Z" fill="white"/>
<circle cx="40" cy="21" r="12" fill="white"/>
<path d="M34.5547 15.6679C34.0952 15.3616 33.4743 15.4858 33.1679 15.9453C32.8616 16.4048 32.9858 17.0257 33.4453 17.3321L34.5547 15.6679ZM37 18.5L37.6402 19.2682C37.8826 19.0662 38.0154 18.7617 37.9986 18.4467C37.9817 18.1316 37.8172 17.843 37.5547 17.6679L37 18.5ZM33.3598 20.2318C32.9355 20.5853 32.8782 21.2159 33.2318 21.6402C33.5853 22.0645 34.2159 22.1218 34.6402 21.7682L33.3598 20.2318ZM36.3598 17.7318L33.3598 20.2318L34.6402 21.7682L37.6402 19.2682L36.3598 17.7318ZM33.4453 17.3321L34.9453 18.3321L36.0547 16.6679L34.5547 15.6679L33.4453 17.3321ZM34.9453 18.3321L36.4453 19.3321L37.5547 17.6679L36.0547 16.6679L34.9453 18.3321Z" fill="#FF9900"/>
<path d="M45.4453 15.6679C45.9048 15.3616 46.5257 15.4858 46.8321 15.9453C47.1384 16.4048 47.0142 17.0257 46.5547 17.3321L45.4453 15.6679ZM43 18.5L42.3598 19.2682C42.1174 19.0662 41.9846 18.7617 42.0014 18.4467C42.0183 18.1316 42.1828 17.843 42.4453 17.6679L43 18.5ZM46.6402 20.2318C47.0645 20.5853 47.1218 21.2159 46.7682 21.6402C46.4147 22.0645 45.7841 22.1218 45.3598 21.7682L46.6402 20.2318ZM43.6402 17.7318L46.6402 20.2318L45.3598 21.7682L42.3598 19.2682L43.6402 17.7318ZM46.5547 17.3321L45.0547 18.3321L43.9453 16.6679L45.4453 15.6679L46.5547 17.3321ZM45.0547 18.3321L43.5547 19.3321L42.4453 17.6679L43.9453 16.6679L45.0547 18.3321Z" fill="#FF9900"/>
<path d="M35.5 25.5C37.25 27.75 40.75 30 44.5 25.5" stroke="#FF9900" stroke-width="2" stroke-linecap="round"/>
</svg>
